<mxfile host="app.diagrams.net" modified="2020-05-12T11:11:07.417Z" agent="5.0 (Windows NT 10.0; Win64; x64) AppleWebKit/537.36 (KHTML, like Gecko) Chrome/81.0.4044.138 Safari/537.36" etag="2huJ-s6z_XhIWGdTC47q" version="13.0.9" type="github">
  <diagram id="cFVv3-mi-PGWNtKawWfz" name="Page-1">
    <mxGraphModel dx="782" dy="469" grid="1" gridSize="10" guides="1" tooltips="1" connect="1" arrows="1" fold="1" page="1" pageScale="1" pageWidth="827" pageHeight="1169" math="0" shadow="0">
      <root>
        <mxCell id="0" />
        <mxCell id="1" parent="0" />
        <mxCell id="pfko9mZb5rqo9NDhkAkQ-1" value="" style="ellipse;html=1;shape=startState;fillColor=#000000;strokeColor=#ff0000;" vertex="1" parent="1">
          <mxGeometry x="384" y="30" width="30" height="30" as="geometry" />
        </mxCell>
        <mxCell id="pfko9mZb5rqo9NDhkAkQ-2" value="" style="edgeStyle=orthogonalEdgeStyle;html=1;verticalAlign=bottom;endArrow=open;endSize=8;strokeColor=#ff0000;" edge="1" source="pfko9mZb5rqo9NDhkAkQ-1" parent="1">
          <mxGeometry relative="1" as="geometry">
            <mxPoint x="399" y="120" as="targetPoint" />
          </mxGeometry>
        </mxCell>
        <mxCell id="pfko9mZb5rqo9NDhkAkQ-3" value="Go to Dashboard" style="rounded=1;whiteSpace=wrap;html=1;arcSize=40;fontColor=#000000;fillColor=#ffffc0;strokeColor=#ff0000;" vertex="1" parent="1">
          <mxGeometry x="339" y="120" width="120" height="40" as="geometry" />
        </mxCell>
        <mxCell id="pfko9mZb5rqo9NDhkAkQ-4" value="" style="edgeStyle=orthogonalEdgeStyle;html=1;verticalAlign=bottom;endArrow=open;endSize=8;strokeColor=#ff0000;" edge="1" source="pfko9mZb5rqo9NDhkAkQ-3" parent="1">
          <mxGeometry relative="1" as="geometry">
            <mxPoint x="399" y="220" as="targetPoint" />
          </mxGeometry>
        </mxCell>
        <mxCell id="pfko9mZb5rqo9NDhkAkQ-5" value="" style="shape=line;html=1;strokeWidth=6;strokeColor=#ff0000;" vertex="1" parent="1">
          <mxGeometry x="299" y="220" width="200" height="10" as="geometry" />
        </mxCell>
        <mxCell id="pfko9mZb5rqo9NDhkAkQ-7" value="" style="edgeStyle=orthogonalEdgeStyle;html=1;verticalAlign=bottom;endArrow=open;endSize=8;strokeColor=#ff0000;exitX=0.205;exitY=0.867;exitDx=0;exitDy=0;exitPerimeter=0;" edge="1" parent="1" source="pfko9mZb5rqo9NDhkAkQ-5">
          <mxGeometry relative="1" as="geometry">
            <mxPoint x="340" y="300" as="targetPoint" />
            <mxPoint x="409" y="170" as="sourcePoint" />
          </mxGeometry>
        </mxCell>
        <mxCell id="pfko9mZb5rqo9NDhkAkQ-8" value="" style="edgeStyle=orthogonalEdgeStyle;html=1;verticalAlign=bottom;endArrow=open;endSize=8;strokeColor=#ff0000;entryX=0.426;entryY=0;entryDx=0;entryDy=0;entryPerimeter=0;" edge="1" parent="1" target="pfko9mZb5rqo9NDhkAkQ-11">
          <mxGeometry relative="1" as="geometry">
            <mxPoint x="450" y="300" as="targetPoint" />
            <mxPoint x="465" y="228" as="sourcePoint" />
            <Array as="points">
              <mxPoint x="465" y="228" />
            </Array>
          </mxGeometry>
        </mxCell>
        <mxCell id="pfko9mZb5rqo9NDhkAkQ-9" value="Check your Completed Appointments" style="rounded=1;whiteSpace=wrap;html=1;arcSize=40;fontColor=#000000;fillColor=#ffffc0;strokeColor=#ff0000;" vertex="1" parent="1">
          <mxGeometry x="280" y="300" width="120" height="40" as="geometry" />
        </mxCell>
        <mxCell id="pfko9mZb5rqo9NDhkAkQ-10" value="" style="edgeStyle=orthogonalEdgeStyle;html=1;verticalAlign=bottom;endArrow=open;endSize=8;strokeColor=#ff0000;" edge="1" source="pfko9mZb5rqo9NDhkAkQ-9" parent="1">
          <mxGeometry relative="1" as="geometry">
            <mxPoint x="340" y="400" as="targetPoint" />
          </mxGeometry>
        </mxCell>
        <mxCell id="pfko9mZb5rqo9NDhkAkQ-11" value="Check the pictures from your past appointments in the&amp;nbsp; gallery" style="rounded=1;whiteSpace=wrap;html=1;arcSize=40;fontColor=#000000;fillColor=#ffffc0;strokeColor=#ff0000;" vertex="1" parent="1">
          <mxGeometry x="410" y="300" width="130" height="50" as="geometry" />
        </mxCell>
        <mxCell id="pfko9mZb5rqo9NDhkAkQ-12" value="" style="edgeStyle=orthogonalEdgeStyle;html=1;verticalAlign=bottom;endArrow=open;endSize=8;strokeColor=#ff0000;entryX=0.805;entryY=0.5;entryDx=0;entryDy=0;entryPerimeter=0;" edge="1" source="pfko9mZb5rqo9NDhkAkQ-11" parent="1" target="pfko9mZb5rqo9NDhkAkQ-15">
          <mxGeometry relative="1" as="geometry">
            <mxPoint x="475" y="400" as="targetPoint" />
          </mxGeometry>
        </mxCell>
        <mxCell id="pfko9mZb5rqo9NDhkAkQ-13" value="Get information for the date, price and the service offered" style="rounded=1;whiteSpace=wrap;html=1;arcSize=40;fontColor=#000000;fillColor=#ffffc0;strokeColor=#ff0000;" vertex="1" parent="1">
          <mxGeometry x="280" y="400" width="120" height="40" as="geometry" />
        </mxCell>
        <mxCell id="pfko9mZb5rqo9NDhkAkQ-14" value="" style="edgeStyle=orthogonalEdgeStyle;html=1;verticalAlign=bottom;endArrow=open;endSize=8;strokeColor=#ff0000;" edge="1" source="pfko9mZb5rqo9NDhkAkQ-13" parent="1">
          <mxGeometry relative="1" as="geometry">
            <mxPoint x="340" y="500" as="targetPoint" />
          </mxGeometry>
        </mxCell>
        <mxCell id="pfko9mZb5rqo9NDhkAkQ-15" value="" style="shape=line;html=1;strokeWidth=6;strokeColor=#ff0000;" vertex="1" parent="1">
          <mxGeometry x="314" y="500" width="200" height="10" as="geometry" />
        </mxCell>
        <mxCell id="pfko9mZb5rqo9NDhkAkQ-16" value="" style="edgeStyle=orthogonalEdgeStyle;html=1;verticalAlign=bottom;endArrow=open;endSize=8;strokeColor=#ff0000;" edge="1" source="pfko9mZb5rqo9NDhkAkQ-17" parent="1">
          <mxGeometry relative="1" as="geometry">
            <mxPoint x="414" y="580" as="targetPoint" />
          </mxGeometry>
        </mxCell>
        <mxCell id="pfko9mZb5rqo9NDhkAkQ-17" value="" style="ellipse;html=1;shape=endState;fillColor=#000000;strokeColor=#ff0000;" vertex="1" parent="1">
          <mxGeometry x="399" y="580" width="30" height="30" as="geometry" />
        </mxCell>
        <mxCell id="pfko9mZb5rqo9NDhkAkQ-18" value="" style="edgeStyle=orthogonalEdgeStyle;html=1;verticalAlign=bottom;endArrow=open;endSize=8;strokeColor=#ff0000;" edge="1" parent="1" source="pfko9mZb5rqo9NDhkAkQ-15" target="pfko9mZb5rqo9NDhkAkQ-17">
          <mxGeometry relative="1" as="geometry">
            <mxPoint x="414" y="580" as="targetPoint" />
            <mxPoint x="414" y="510" as="sourcePoint" />
          </mxGeometry>
        </mxCell>
      </root>
    </mxGraphModel>
  </diagram>
</mxfile>
